# xmcd
#
# Track frame offsets: 
#        150
#        15253
#        30179
#        44464
#        58864
#        71516
#        85625
#        99161
#        114205
#        129391
#        147592
#        166967
#        186958
#        204111
#        220050
#        238563
#        257476
#        276292
#        292977
#
# Disc length: 4144 seconds
#
# Revision: 3
# Processed by: cddbd v1.5.2PL0 Copyright (c) Steve Scherf et al.
# Submitted via: ExactAudioCopy v1.1
#
DISCID=fa102e13
DTITLE=Engelbert Humperdinck - Release Me
DYEAR=2003
DGENRE=Country
TTITLE0=Release Me (And Let Me Love Again)
TTITLE1=Quando Quando Quando
TTITLE2=The Way It Used To Be
TTITLE3=Spanish Eyes
TTITLE4=I'm A Better Man(For Having Loved You)
TTITLE5=Am I That Easy To Forget
TTITLE6=The Last Waltz
TTITLE7=A Man Without Love
TTITLE8=Winter World Of Love
TTITLE9=How To Win Your Love
TTITLE10=Dance The Night Away
TTITLE11=Brazil
TTITLE12=How Slow We Go
TTITLE13=If
TTITLE14=Sometimes When We Touch
TTITLE15=This Guys In Love With You
TTITLE16=It's All In The Game
TTITLE17=She
TTITLE18=Angels
EXTD=YEAR: 2003
EXTT0=
EXTT1=
EXTT2=
EXTT3=
EXTT4=
EXTT5=
EXTT6=
EXTT7=
EXTT8=
EXTT9=
EXTT10=
EXTT11=
EXTT12=
EXTT13=
EXTT14=
EXTT15=
EXTT16=
EXTT17=
EXTT18=
PLAYORDER=
